<svg width="24" height="24" viewBox="0 0 24 24" fill="none" xmlns="http://www.w3.org/2000/svg">
<path d="M3 3H21C21.5523 3 22 3.44772 22 4V20C22 20.5523 21.5523 21 21 21H3C2.44772 21 2 20.5523 2 20V4C2 3.44772 2.44772 3 3 3Z" fill="black"/>
<path d="M7.3751 6V16.6667H18.3759V18H5.99999V6H7.3751ZM17.8898 8.19526C18.4349 7.66666 19.3483 8.66667 18.8621 9.13807C18.3759 9.60947 14.9382 12.9428 14.9382 12.9428L12.8755 10.9433C12.8755 10.9433 11.1586 12.7729 9.92393 13.8047C8.89259 14.6667 7.97551 13.8047 8.95158 12.8619C9.92765 11.9191 12.8755 9.05719 12.8755 9.05719L14.9382 11.0567C14.9382 11.0567 17.3446 8.72386 17.8898 8.19526Z" fill="white"/>
</svg>
